<?xml version="1.0" encoding="utf-8"?><svg fill="none" viewBox="0 0 550 550" xmlns="http://www.w3.org/2000/svg"><defs /><g id="Left Leg"><g transform="translate(325.825,360.173)"><g transform="rotate(-10)"><animateTransform repeatCount="indefinite" type="rotate" attributeName="transform" dur="3.3s" begin="0s" calcMode="spline" values="-10; -36; -36; -10" keyTimes="0; 0.293; 0.626; 1" keySplines="0.333 0 0.667 1; 0.333 0 0.667 1; 0.333 0 0.667 1" fill="freeze" /><g transform="scale(1,1) translate(-325.825,-360.173)"><g id="Group 3" transform="matrix(1,0,0,1,228.216,456.649)"><path fill="#f1ba9a" fill-opacity="1" d="M3.746,-28.422L-22.047,7.328L-9.082,28.422L22.047,-6.262L3.746,-28.422Z" /></g><g id="Group 2" transform="matrix(1,0,0,1,0,0)"><g id="Group 2" transform="matrix(1,0,0,1,195.821,469.236)"><path fill="#002e72" fill-opacity="1" d="M13.375,-10.885L-20.015,-33.243C-22.452,-34.903,-25.709,-34.674,-27.891,-32.69L-27.891,-32.69L9.299,34.348L27.891,14.465L13.375,-10.885Z" /></g><g id="Group 1" transform="matrix(1,0,0,1,183.051,472.075)"><path fill="#939393" fill-opacity="1" d="M16.009,36.318L-22.231,-32.604L-15.561,-36.318L22.074,31.514C22.408,32.116,22.191,32.876,21.589,33.211L16.009,36.318Z" /></g></g><g id="Group 1" transform="matrix(1,0,0,1,269.343,409.332)"><path fill="#66564b" fill-opacity="1" d="M-59.486,27.857L-32.296,61.379L51.504,-16.946C62.252,-27.203,62.129,-44.398,51.235,-54.501L51.235,-54.501C40.728,-64.245,24.293,-63.552,14.644,-52.958L-59.486,27.857Z" /></g></g></g></g></g><g transform="matrix(1,0,0,1,275,275)" id="Shape Layer 2"><g id="Rectangle 1" transform="matrix(1,0,0,1,-22.5,156)"><rect height="192" width="271" y="0" x="0" fill="#41515b" fill-opacity="1" /></g></g><g opacity="0" id="OBJECTS"><animate repeatCount="indefinite" attributeName="opacity" dur="2.1666666666666665s" begin="0.5s" calcMode="spline" values="0; 1; 1; 0" keyTimes="0; 0.154; 0.846; 1" keySplines="0.333 0 0.667 1; 0.333 0 0.667 1; 0.333 0 0.667 1" fill="freeze" /><g transform="translate(212.794,49.598)"><animateTransform repeatCount="indefinite" type="translate" attributeName="transform" dur="2.167s" begin="0.5s" calcMode="spline" values="212.794 49.598; 212.794 108.598; 212.794 108.598; 212.794 49.598" keyTimes="0; 0.154; 0.846; 1" keySplines="0.333 0 0.667 1; 0 0 1 1; 0.333 0 0.667 1" fill="freeze" /><g transform="scale(1,1) translate(23.563,201.54)"><g id="Group 2"><g id="Group 2"><path fill="#3f51b5" fill-opacity="1" d="M33.7,-182.647L-80.825,-182.647C-81.516,-182.647,-82.077,-183.207,-82.077,-183.898L-82.077,-232.506C-82.077,-233.197,-81.516,-233.758,-80.825,-233.758L33.7,-233.758C34.391,-233.758,34.951,-233.197,34.951,-232.506L34.951,-183.898C34.951,-183.207,34.391,-182.647,33.7,-182.647Z" /></g><g id="Group 1"><path fill="#3f51b5" fill-opacity="1" d="M-69.197,-189.753L-69.197,-169.323L-48.767,-189.753L-69.197,-189.753Z" /></g></g><g id="Group 1"><g id="Group 3"><path stroke-linejoin="round" stroke-linecap="round" stroke-width="0.835" stroke-opacity="1" stroke="#ffffff" d="M16.321,-220.868L-63.422,-220.868" /></g><g id="Group 2"><path stroke-linejoin="round" stroke-linecap="round" stroke-width="0.835" stroke-opacity="1" stroke="#ffffff" d="M-30.015,-209.834L-63.422,-209.834" /></g><g id="Group 1"><path stroke-linejoin="round" stroke-linecap="round" stroke-width="0.835" stroke-opacity="1" stroke="#ffffff" d="M-2.645,-197.245L-63.422,-197.245" /></g></g></g></g></g><g transform="matrix(1,0,0,1,0,0)" id="OBJECTS 4"><g id="Group 3" transform="matrix(1,0,0,1,466.039,356.939)"><path stroke-linejoin="miter" stroke-linecap="butt" stroke-width="6" stroke-opacity="1" stroke="#000103" d="M-10.405,38.442C-10.405,38.442,19.487,21.342,7.618,-38.442" /></g><g id="Group 2" transform="matrix(1,0,0,1,0,0)"><g id="Group 3" transform="matrix(1,0,0,1,465.77,272.777)"><path fill="#3f51b5" fill-opacity="1" d="M-7.225,58.304L7.225,58.304L7.225,-58.304L-7.225,-58.304L-7.225,58.304Z" /></g><g id="Group 2" transform="matrix(1,0,0,1,471.455,272.745)"><path fill="#3f51b5" fill-opacity="1" d="M0,58.336L0,58.336C-12.186,58.336,-22.064,48.458,-22.064,36.272L-22.064,-36.272C-22.064,-48.458,-12.186,-58.336,0,-58.336L0,-58.336C12.186,-58.336,22.064,-48.458,22.064,-36.272L22.064,36.272C22.064,48.458,12.186,58.336,0,58.336Z" /></g><g id="Group 1" transform="matrix(1,0,0,1,461.062,272.745)"><path fill="#2a3f96" fill-opacity="1" d="M0,58.336L0,58.336C-10.795,58.336,-19.547,49.585,-19.547,38.79L-19.547,-38.79C-19.547,-49.585,-10.795,-58.336,0,-58.336L0,-58.336C10.795,-58.336,19.547,-49.585,19.547,-38.79L19.547,38.79C19.547,49.585,10.795,58.336,0,58.336Z" /></g></g><g id="Group 1" transform="matrix(1,0,0,1,0,0)"><g id="Group 4" transform="matrix(1,0,0,1,0,0)"><g id="Group 3" transform="matrix(1,0,0,1,414.881,444.483)"><path fill="#ebeff2" fill-opacity="1" d="M8.317,45.845L-8.317,45.845L-8.317,-45.845L8.317,-45.845L8.317,45.845Z" /></g><g id="Group 2" transform="matrix(1,0,0,1,388.337,492.507)"><path fill="#ebeff2" fill-opacity="1" d="M22.532,-13.859L-25.253,7.738L-24.573,13.859L25.253,-2.178L22.532,-13.859Z" /></g><g id="Group 1" transform="matrix(1,0,0,1,441.516,492.507)"><path fill="#ebeff2" fill-opacity="1" d="M-22.532,-13.859L25.253,7.738L24.573,13.859L-25.253,-2.178L-22.532,-13.859Z" /></g></g><g id="Group 3" transform="matrix(1,0,0,1,365.253,517.305)"><path fill="#000103" fill-opacity="1" d="M11.42,0C11.42,6.307,6.307,11.42,0,11.42C-6.307,11.42,-11.42,6.307,-11.42,0C-11.42,-6.307,-6.307,-11.42,0,-11.42C6.307,-11.42,11.42,-6.307,11.42,0Z" /></g><g id="Group 2" transform="matrix(1,0,0,1,466.769,517.305)"><path fill="#000103" fill-opacity="1" d="M11.42,0C11.42,6.307,6.307,11.42,0,11.42C-6.307,11.42,-11.42,6.307,-11.42,0C-11.42,-6.307,-6.307,-11.42,0,-11.42C6.307,-11.42,11.42,-6.307,11.42,0Z" /></g><g id="Group 1" transform="matrix(1,0,0,1,413.616,395.381)"><path fill="#3f51b5" fill-opacity="1" d="M48.199,9.64L-48.199,9.64C-53.523,9.64,-57.839,5.324,-57.839,0L-57.839,0C-57.839,-5.324,-53.523,-9.64,-48.199,-9.64L48.199,-9.64C53.523,-9.64,57.839,-5.324,57.839,0L57.839,0C57.839,5.324,53.523,9.64,48.199,9.64Z" /></g></g></g><g id="OBJECTS 5"><g transform="translate(380.963,206.97)"><animateTransform repeatCount="indefinite" type="translate" attributeName="transform" dur="1.5s" begin="1.667s" calcMode="spline" values="380.963 206.97; 383.963 210.97; 383.963 210.97; 380.963 206.97" keyTimes="0; 0.333; 0.667; 1" keySplines="0.333 0 0.667 1; 0 0 1 1; 0.333 0 0.667 1" fill="freeze" /><g transform="rotate(0)"><animateTransform repeatCount="indefinite" type="rotate" attributeName="transform" dur="1.5s" begin="1.667s" calcMode="spline" values="0; 14; 14; 0" keyTimes="0; 0.333; 0.667; 1" keySplines="0.333 0 0.667 1; 0.333 0 0.667 1; 0.333 0 0.667 1" fill="freeze" /><g transform="scale(1,1) translate(-380.963,-205.97)"><g id="Group 2" transform="matrix(1,0,0,1,369.213,190.22)"><path fill="#f1ba9a" fill-opacity="1" d="M-20.085,4.502L0.204,27.091L20.085,6.395L-10.401,-27.091L-20.085,4.502Z" /></g><g id="Group 1" transform="matrix(1,0,0,1,356.224,198.74)"><path fill="#d89877" fill-opacity="1" d="M4.784,9.208C4.43,8.814,2.237,-9.208,2.237,-9.208L-4.784,-1.444L4.784,9.208Z" /></g></g></g></g></g><g id="Head"><g transform="translate(348.42,210.377)"><g transform="rotate(0)"><animateTransform repeatCount="indefinite" type="rotate" attributeName="transform" dur="1.5s" begin="1.667s" calcMode="spline" values="0; 20; 20; 0" keyTimes="0; 0.333; 0.667; 1" keySplines="0.333 0 0.667 1; 0.333 0 0.667 1; 0.333 0 0.667 1" fill="freeze" /><g transform="scale(1,1) translate(-348.42,-210.377)"><g id="Group 5" transform="matrix(1,0,0,1,338.071,170.908)"><path fill="#f1ba9a" fill-opacity="1" d="M-19.786,-27.981C-19.786,-27.981,-31.425,-20.482,-25.305,-4.415C-25.305,-4.415,-20.742,7.18,-14.038,23.814C-10.496,32.604,0.437,36.264,8.124,30.721C12.832,27.326,17.703,22.666,21.136,16.473L25.466,6.549C34.225,-19.693,5.638,-43.304,-18.075,-29.054C-18.642,-28.713,-19.212,-28.356,-19.786,-27.981Z" /></g><g id="Group 4" transform="matrix(1,0,0,1,320.218,183.734)"><path fill="#f1ba9a" fill-opacity="1" d="M-0.387,-4.911L-3.762,2.982C-4.226,4.066,-3.206,5.196,-2.08,4.846L3.876,2.995L-0.387,-4.911Z" /></g><g id="Group 3" transform="matrix(1,0,0,1,342.862,152.304)"><path fill="#fa584e" fill-opacity="1" d="M27.947,-15.529C23.99,-21.591,14.461,-26.174,7.223,-26.335C-23.82,-27.027,-31.839,0.444,-31.839,0.444C6.368,-28.715,4.315,11.703,4.315,11.703C4.315,11.703,11.678,16.117,13.485,18.488C21.627,29.176,29.196,25.863,29.196,25.863C31.43,5.148,34.349,-5.721,27.947,-15.529Z" /></g><g id="Group 2" transform="matrix(1,0,0,1,335.92,146.332)"><path fill="#fa584e" fill-opacity="1" d="M12.227,22.907L12.227,22.907C7.842,23.368,3.806,20.473,2.838,16.171L-0.082,3.195C-0.082,3.195,-12.244,17.157,-19.487,5.79C-19.487,5.79,-37.52,15.925,-41.383,3.232C-45.246,-9.461,-33.358,-12.729,-7.522,-20.631C-7.522,-20.631,-12.63,-25.036,-8.809,-27.37C-4.988,-29.704,3.017,-24.207,3.017,-24.207C3.017,-24.207,3.117,-31.768,7.548,-31.834C11.98,-31.9,14.304,-26.683,14.304,-26.683C14.304,-26.683,46.223,-31.958,41.649,3.267L36.138,31.835L17.455,17.883L12.227,22.907Z" /></g><g id="Group 1" transform="matrix(1,0,0,1,0,0)"><g id="Group 2" transform="matrix(1,0,0,1,355.014,166.376)"><path fill="#f1ba9a" fill-opacity="1" d="M8.056,-4.283C10.421,0.166,8.732,5.691,4.283,8.056C-0.166,10.421,-5.691,8.732,-8.056,4.283C-10.421,-0.166,-8.732,-5.691,-4.283,-8.056C0.166,-10.421,5.691,-8.732,8.056,-4.283Z" /></g><g id="Group 1" transform="matrix(1,0,0,1,353.391,165.94)"><path stroke-linejoin="round" stroke-linecap="round" stroke-width="0.519" stroke-opacity="1" stroke="#000000" d="M-1.087,3.945C-1.087,3.945,-4.192,-1.895,1.881,-3.945" /></g></g></g></g></g></g><g id="OBJECTS 8"><g transform="translate(241.104,304.781)"><g transform="rotate(0)"><animateTransform repeatCount="indefinite" type="rotate" attributeName="transform" dur="1.667s" begin="0.5s" calcMode="spline" values="0; 20; 0; 0; 20; 0; 20; 0; 0; 20; 0" keyTimes="0; 0.1; 0.2; 0.3; 0.4; 0.5; 0.6; 0.7; 0.8; 0.9; 1" keySplines="0.333 0 0.667 1; 0.333 0 0.667 1; 0.333 0 0.667 1; 0.333 0 0.667 1; 0.333 0 0.667 1; 0.333 0 0.667 1; 0.333 0 0.667 1; 0.333 0 0.667 1; 0.333 0 0.667 1; 0.333 0 0.667 1" fill="freeze" /><g transform="scale(1,1) translate(-16.625,1.25)"><g id="Group 1"><path fill="#d88c71" fill-opacity="1" d="M5.294,0.706C3.428,0.057,1.365,0.301,-0.431,1.124L-13.027,6.893C-15.186,7.048,-17.087,5.427,-17.244,3.241C-17.38,1.356,-16.157,-0.353,-14.324,-0.842L0.305,-6.343C2.245,-6.867,4.237,-7.038,6.205,-6.795C6.73,-6.75,7.344,-6.629,8.015,-6.458C8.099,-6.437,8.183,-6.415,8.294,-6.395C8.684,-6.313,9.106,-6.179,9.526,-6.072C9.975,-5.939,10.453,-5.782,10.931,-5.624C11.409,-5.466,11.917,-5.282,12.452,-5.101C24.247,-0.493,11.355,2.815,5.294,0.706Z" /></g></g></g></g></g><g id="OBJECTS 9"><g transform="translate(229.005,293.293)"><g transform="rotate(0)"><animateTransform repeatCount="indefinite" type="rotate" attributeName="transform" dur="1.667s" begin="0.333s" calcMode="spline" values="0; 20; 0; 0; 20; 0; 20; 0; 0; 20; 0" keyTimes="0; 0.1; 0.2; 0.3; 0.4; 0.5; 0.6; 0.7; 0.8; 0.9; 1" keySplines="0.333 0 0.667 1; 0.333 0 0.667 1; 0.333 0 0.667 1; 0.333 0 0.667 1; 0.333 0 0.667 1; 0.333 0 0.667 1; 0.333 0 0.667 1; 0.333 0 0.667 1; 0.333 0 0.667 1; 0.333 0 0.667 1" fill="freeze" /><g transform="scale(1,1) translate(-14.125,8.625)"><g id="Group 1"><path fill="#dd997a" fill-opacity="1" d="M5.581,-0.749L-9.639,10.494C-11.542,11.526,-13.943,10.833,-14.988,8.906C-15.889,7.244,-15.479,5.184,-14.011,3.983L-2.952,-7.061C-1.401,-8.338,0.344,-9.316,2.237,-9.906C2.734,-10.082,3.342,-10.224,4.024,-10.345C4.109,-10.36,4.195,-10.376,4.304,-10.404C4.693,-10.491,5.134,-10.542,5.56,-10.617C6.024,-10.681,6.524,-10.735,7.025,-10.788C7.526,-10.841,8.064,-10.884,8.626,-10.939C23.078,-11.7,10.952,1.512,5.581,-0.749Z" /></g></g></g></g></g><g id="OBJECTS 10"><g transform="translate(260.198,308.163)"><g transform="rotate(0)"><animateTransform repeatCount="indefinite" type="rotate" attributeName="transform" dur="1.667s" begin="0s" calcMode="spline" values="0; 0; -4; 0; -4; -4; 0" keyTimes="0; 0.2; 0.3; 0.5; 0.7; 0.8; 1" keySplines="0.333 0 0.667 1; 0.333 0 0.667 1; 0.333 0 0.667 1; 0.333 0 0.667 1; 0.333 0 0.667 1; 0.333 0 0.667 1" fill="freeze" /><g transform="scale(1,1) translate(-20.25,-9)"><g id="Group 1"><path fill="#f1ba9a" fill-opacity="1" d="M21.001,7.233C21.001,10.877,18.042,13.835,14.398,13.835C13.987,13.835,13.604,13.808,13.22,13.726L13.22,13.753C13.22,13.753,-8.889,13.233,-13.902,-3.917C-13.902,-3.917,-26.23,-7.341,-18.395,-13.533C-16.423,-13.917,-14.422,-13.945,-12.477,-13.561C-7.792,-12.712,3.33,-6.904,15.193,0.603L15.193,0.658C18.453,1.042,21.001,3.836,21.001,7.233Z" /></g></g></g></g></g><g id="OBJECTS 11"><g transform="translate(230.639,293.501)"><g transform="rotate(0)"><animateTransform repeatCount="indefinite" type="rotate" attributeName="transform" dur="1.667s" begin="0.167s" calcMode="spline" values="0; 20; -17; -17; 20; 0; 20; -17; -17; 20; 0" keyTimes="0; 0.1; 0.2; 0.3; 0.4; 0.5; 0.6; 0.7; 0.8; 0.9; 1" keySplines="0.333 0 0.667 1; 0.333 0 0.667 1; 0.333 0 0.667 1; 0.333 0 0.667 1; 0.333 0 0.667 1; 0.333 0 0.667 1; 0.333 0 0.667 1; 0.333 0 0.667 1; 0.333 0 0.667 1; 0.333 0 0.667 1" fill="freeze" /><g transform="scale(1,1) translate(-15.25,2.75)"><g id="Group 1"><path fill="#e8a989" fill-opacity="1" d="M5.482,1.458L-12.207,8.178C-14.317,8.658,-16.442,7.344,-16.928,5.207C-17.347,3.364,-16.398,1.489,-14.66,0.729L-1.032,-6.922C0.806,-7.734,2.75,-8.205,4.732,-8.262C5.258,-8.297,5.882,-8.271,6.572,-8.203C6.658,-8.194,6.744,-8.185,6.857,-8.183C7.255,-8.161,7.693,-8.092,8.124,-8.05C8.588,-7.987,9.084,-7.903,9.581,-7.819C10.078,-7.735,10.608,-7.631,11.164,-7.533C25.286,-4.368,10.044,5.084,5.482,1.458Z" /></g></g></g></g></g><g transform="matrix(1,0,0,1,227.249,291.454)" id="OBJECTS 12"><g id="Group 1"><path fill="#f1ba9a" fill-opacity="1" d="M-6.203,3.792L-2.997,-5.385L-2.997,-5.413C-2.915,-5.386,-2.805,-5.358,-2.723,-5.303C-2.339,-5.193,-1.929,-5.029,-1.518,-4.892C-1.08,-4.727,-0.614,-4.536,-0.148,-4.344C0.318,-4.152,0.81,-3.933,1.331,-3.714C14.399,2.505,-2.559,8.34,-6.203,3.792Z" /></g></g><g id="OBJECTS 13"><g transform="translate(232.782,292.102)"><g transform="rotate(0)"><animateTransform repeatCount="indefinite" type="rotate" attributeName="transform" dur="1.667s" begin="0s" calcMode="spline" values="0; 20; -25; -25; 20; 0; 20; -25; -25; 20; 0" keyTimes="0; 0.1; 0.2; 0.3; 0.4; 0.5; 0.6; 0.7; 0.8; 0.9; 1" keySplines="0.333 0 0.667 1; 0.333 0 0.667 1; 0.333 0 0.667 1; 0.333 0 0.667 1; 0.333 0 0.667 1; 0.333 0 0.667 1; 0.333 0 0.667 1; 0.333 0 0.667 1; 0.333 0 0.667 1; 0.333 0 0.667 1" fill="freeze" /><g transform="scale(1,1) translate(-16.875,-0.5)"><g id="Group 1"><path fill="#f1ba9a" fill-opacity="1" d="M5.139,3.644L-13.6,6.274C-15.764,6.274,-17.545,4.521,-17.545,2.329C-17.545,0.439,-16.202,-1.178,-14.339,-1.534L0.646,-5.972C2.618,-6.356,4.619,-6.384,6.564,-6C7.085,-5.918,7.688,-5.753,8.345,-5.534C8.427,-5.507,8.509,-5.479,8.619,-5.452C9.003,-5.342,9.413,-5.178,9.824,-5.041C10.262,-4.876,10.728,-4.685,11.194,-4.493C11.66,-4.301,12.152,-4.082,12.673,-3.863C25.741,2.356,8.783,8.192,5.139,3.644Z" /></g></g></g></g></g><g transform="matrix(1,0,0,1,0,0)" id="OBJECTS 14"><g id="Group 3" transform="matrix(1,0,0,1,413.145,271.862)"><path fill="#ebeff2" fill-opacity="1" d="M-46.02,-54.127C-46.02,-54.127,-46.214,-37.942,-35.55,-11.586C-24.886,14.77,-28.896,60.606,-28.896,60.606C-28.896,60.606,0.898,76.649,45.588,76.076C45.588,76.076,50.25,4.72,28.972,-39.087C9.492,-79.194,-24.321,-76.032,-24.321,-76.032L-46.02,-54.127Z" /></g><g id="Group 2" transform="matrix(1,0,0,1,0,0)"><g id="Group 2" transform="matrix(1,0,0,1,290.898,299.778)"><path fill="#f1ba9a" fill-opacity="1" d="M19.952,-13.133L-39.461,0L-41.452,13.133L41.452,13.133L19.952,-13.133Z" /></g><g id="Group 1" transform="matrix(1,0,0,1,251.437,306.39)"><path fill="#f1ba9a" fill-opacity="1" d="M6.612,0C6.612,3.652,3.652,6.612,0,6.612C-3.652,6.612,-6.612,3.652,-6.612,0C-6.612,-3.652,-3.652,-6.612,0,-6.612C3.652,-6.612,6.612,-3.652,6.612,0Z" /></g></g><g id="Group 1" transform="matrix(1,0,0,1,0,0)"><g id="Group 2" transform="matrix(1,0,0,1,358.326,265.29)"><path fill="#ebeff2" fill-opacity="1" d="M12.582,-47.621L-47.475,21.355L-25.975,47.621L47.475,-10.164L12.582,-47.621Z" /></g><g id="Group 1" transform="matrix(1,0,0,1,393.728,264.624)"><path stroke-linejoin="miter" stroke-linecap="butt" stroke-width="0.779" stroke-opacity="1" stroke="#ebeff2" d="M-12.073,9.498L12.073,-9.498" /></g></g></g><g id="Right Leg"><g transform="translate(310.638,387.578)"><animateTransform repeatCount="indefinite" type="translate" attributeName="transform" dur="3.3s" begin="0s" calcMode="spline" values="310.638 387.578; 295.638 393.578; 304.638 390.578; 310.638 387.578" keyTimes="0; 0.293; 0.626; 1" keySplines="0.333 0 0.667 1; 0.333 0 0.667 1; 0.333 0 0.667 1" fill="freeze" /><g transform="rotate(0)"><animateTransform repeatCount="indefinite" type="rotate" attributeName="transform" dur="3.3s" begin="0s" calcMode="spline" values="0; 44; 39; 0" keyTimes="0; 0.293; 0.626; 1" keySplines="0.333 0 0.667 1; 0.333 0 0.667 1; 0.333 0 0.667 1" fill="freeze" /><g transform="scale(1,1) translate(-310.638,-387.578)"><g id="Group 3" transform="matrix(1,0,0,1,335.388,478.902)"><path fill="#f1ba9a" fill-opacity="1" d="M-22.128,-16.845L-2.58,22.667L22.128,21.064L6.017,-22.667L-22.128,-16.845Z" /></g><g id="Group 2" transform="matrix(1,0,0,1,0,0)"><g id="Group 2" transform="matrix(1,0,0,1,328.908,508.915)"><path fill="#002e72" fill-opacity="1" d="M0.342,-12.653L-35.03,6.416C-37.636,7.795,-38.957,10.781,-38.223,13.637L-38.223,13.637L38.424,12.094L29.537,-13.637L0.342,-12.653Z" /></g><g id="Group 1" transform="matrix(1,0,0,1,329.266,525.605)"><path fill="#939393" fill-opacity="1" d="M39.485,3.009L-39.319,4.599L-39.485,-3.034L38.072,-4.598C38.761,-4.612,39.331,-4.066,39.346,-3.377L39.485,3.009Z" /></g></g><g id="Group 1" transform="matrix(1,0,0,1,312.859,416.87)"><path fill="#746256" fill-opacity="1" d="M-2.009,68.917L40.335,60.549L10.262,-50.144C6.218,-64.44,-9.041,-72.369,-23.064,-67.461L-23.064,-67.461C-36.589,-62.727,-43.658,-47.873,-38.803,-34.391L-2.009,68.917Z" /></g></g></g></g></g><g transform="matrix(1,0,0,1,275,275)" id="Shape Layer 1"><g id="Rectangle 1" transform="matrix(1.639,0,0,1,32,157.5)"><rect height="193" width="166" y="0" x="0" fill="#41515b" fill-opacity="1" /></g></g><g transform="matrix(1,0,0,1,374.016,360.941)" id="OBJECTS 16"><g id="Group 1"><path fill="#746256" fill-opacity="1" d="M10.233,-28.473L-81.191,-12.386C-81.191,-12.386,-88.288,0.289,-82.355,7.87L-72.311,20.705C-69.88,23.812,-66.154,28.473,-62.208,28.473L49.924,25.628C49.924,25.628,85.109,29.081,84.717,-13.003L10.233,-28.473Z" /></g></g><g transform="matrix(1,0,0,1,0,0)" id="OBJECTS 17"><g id="Group 2" transform="matrix(1,0,0,1,0,0)"><g id="Group 4" transform="matrix(1,0,0,1,0,0)"><g id="Group 2" transform="matrix(1,0,0,1,136.409,250.461)"><path fill="#ebeff2" fill-opacity="1" d="M3.441,61.177L-3.441,61.177L-3.441,-61.177L3.441,-61.177L3.441,61.177Z" /></g><g id="Group 1" transform="matrix(1,0,0,1,137.624,309.471)"><path fill="#ebeff2" fill-opacity="1" d="M34.64,3.44L-34.64,3.44L-34.64,-3.44L34.64,-3.44L34.64,3.44Z" /></g></g><g id="Group 3" transform="matrix(1,0,0,1,149.865,182.443)"><path fill="#ebeff2" fill-opacity="1" d="M36.752,77.749L21.485,83.271L-36.752,-77.749L-21.485,-83.271L36.752,77.749Z" /></g><g id="Group 2" transform="matrix(1,0,0,1,144.992,184.403)"><path fill="#ebeff2" fill-opacity="1" d="M-17.752,-0.037C-17.752,11.553,-8.356,20.948,3.233,20.948C8.873,20.948,13.981,18.711,17.752,15.092C13.157,2.981,8.541,-9.192,1.758,-20.948C-9.14,-20.188,-17.752,-11.129,-17.752,-0.037Z" /></g><g id="Group 1" transform="matrix(1,0,0,1,142.77,186.383)"><path fill="#c6c6c6" fill-opacity="1" d="M-6.845,-18.968L0.132,18.19C0.132,18.19,2.861,19.277,6.845,18.882L-6.845,-18.968Z" /></g></g><g id="Group 1" transform="matrix(1,0,0,1,0,0)"><g id="Group 2" transform="matrix(1,0,0,1,0,0)"><g id="Group 3" transform="matrix(1,0,0,1,92.766,429.22)"><path stroke-linejoin="miter" stroke-linecap="butt" stroke-width="6" stroke-opacity="1" stroke="#000103" d="M0,-100.984L0,100.984" /></g><g id="Group 2" transform="matrix(1,0,0,1,301.705,429.22)"><path stroke-linejoin="miter" stroke-linecap="butt" stroke-width="6" stroke-opacity="1" stroke="#000103" d="M0,-100.984L0,100.984" /></g><g id="Group 1" transform="matrix(1,0,0,1,201.794,320.573)"><path fill="#213033" fill-opacity="1" d="M-151.401,7.663L151.401,7.663L151.401,-7.663L-151.401,-7.663L-151.401,7.663Z" /></g></g><g id="Group 1" transform="matrix(1,0,0,1,275.641,530.204)"><path stroke-linejoin="miter" stroke-linecap="butt" stroke-width="6" stroke-opacity="1" stroke="#000103" d="M257.082,0L-257.082,0" /></g></g></g><g id="Head"><g transform="translate(348.42,210.377)"><g transform="rotate(0)"><animateTransform repeatCount="indefinite" type="rotate" attributeName="transform" dur="1.5s" begin="1.667s" calcMode="spline" values="0; 20; 20; 0" keyTimes="0; 0.333; 0.667; 1" keySplines="0.333 0 0.667 1; 0.333 0 0.667 1; 0.333 0 0.667 1" fill="freeze" /><g transform="scale(1,1) translate(-348.42,-210.377)"><g id="eye brow"><g transform="translate(325.663,164.345)"><g transform="rotate(-10)"><animateTransform repeatCount="indefinite" type="rotate" attributeName="transform" dur="1.5s" begin="1.667s" calcMode="spline" values="-10; 10; 10; -10" keyTimes="0; 0.333; 0.667; 1" keySplines="0.333 0 0.667 1; 0.333 0 0.667 1; 0.333 0 0.667 1" fill="freeze" /><g transform="scale(0.8,0.8) translate(-328.663,-160.345)"><g id="Group 1" transform="matrix(1,0,0,1,320.788,165.97)"><g id="Group 1"><path fill="#000000" fill-opacity="1" d="M-0.52,-1.603C-0.52,-1.603,-4.978,-0.482,-4.487,1.535C-4.487,1.535,-4.122,2.889,-0.253,1.827C3.615,0.765,4.519,0.105,4.525,-1.289C4.531,-2.683,1.524,-2.306,-0.52,-1.603Z" /></g></g></g></g></g></g></g></g></g></g><g id="Head"><g transform="translate(348.42,210.377)"><g transform="rotate(0)"><animateTransform repeatCount="indefinite" type="rotate" attributeName="transform" dur="1.5s" begin="1.667s" calcMode="spline" values="0; 20; 20; 0" keyTimes="0; 0.333; 0.667; 1" keySplines="0.333 0 0.667 1; 0.333 0 0.667 1; 0.333 0 0.667 1" fill="freeze" /><g transform="scale(1,1) translate(-348.42,-210.377)"><g transform="matrix(1,0,0,1,322.288,177.451)" id="Eye"><g id="Group 1"><path fill="#000000" fill-opacity="1" d="M1.934,-0.188C2.038,0.88,1.256,1.831,0.188,1.935C-0.88,2.039,-1.83,1.256,-1.934,0.188C-2.038,-0.88,-1.256,-1.831,-0.188,-1.935C0.88,-2.039,1.83,-1.256,1.934,-0.188Z" /></g></g></g></g></g></g><g transform="matrix(1,0,0,1,219.855,309.517)" id="OBJECTS 7"><g id="Group 1"><path fill="#ebeff2" fill-opacity="1" d="M31.736,-3.486L-31.736,-3.486L-31.736,3.486L31.736,3.486L31.736,-3.486Z" /></g></g><g id="Head"><g transform="translate(348.42,210.377)"><g transform="rotate(0)"><animateTransform repeatCount="indefinite" type="rotate" attributeName="transform" dur="1.5s" begin="1.667s" calcMode="spline" values="0; 20; 20; 0" keyTimes="0; 0.333; 0.667; 1" keySplines="0.333 0 0.667 1; 0.333 0 0.667 1; 0.333 0 0.667 1" fill="freeze" /><g transform="scale(1,1) translate(-348.42,-210.377)"><g transform="matrix(1,0,0,1,326.967,189.155)" id="Mouth"><g id="Group 1"><path stroke-linejoin="round" stroke-linecap="round" stroke-width="2.5" stroke-opacity="1" stroke="#000000" d="M-2.004,1.471L2.004,-1.471" /></g></g></g></g></g></g></svg>